<svg xmlns="http://www.w3.org/2000/svg" viewBox="0 0 256 256" role="img" aria-label="Relper logo">
  <defs>
    <linearGradient id="relper-gradient" x1="0" y1="0" x2="1" y2="1">
      <stop offset="0%" stop-color="#0f172a" />
      <stop offset="100%" stop-color="#2563eb" />
    </linearGradient>
  </defs>
  <rect width="256" height="256" rx="56" fill="url(#relper-gradient)" />
  <path d="M64 78c0-6.63 5.37-12 12-12h52c36.45 0 66 29.55 66 66s-29.55 66-66 66H76c-6.63 0-12-5.37-12-12V78z" fill="#e2e8f0" opacity="0.95" />
  <path d="M86 94h38c20.99 0 38 17.01 38 38s-17.01 38-38 38H86V94z" fill="#0f172a" />
  <path d="M117 115h20c9.39 0 17 7.61 17 17s-7.61 17-17 17h-20v-34z" fill="#38bdf8" />
  <path d="M70 74h22v108H70z" fill="#f8fafc" />
  <path d="M185 54l8 16 16 8-16 8-8 16-8-16-16-8 16-8 8-16z" fill="#f8fafc" />
</svg>
